<?xml version="1.0" encoding="utf-8"?><svg xmlns="http://www.w3.org/2000/svg" width="240" height="64" viewBox="0 0 240 64"><defs><style>.a{fill:#113984;}.a,.b{fill-rule:evenodd;}.b{fill:#009de2;}</style></defs><path class="a" d="M30.69,0c7.83,0,15.06,4.25,14.07,14.84-1.17,12.56-8,19.56-18.59,19.56H16.89c-1.29,0-2,1.08-2.35,3.32L12.76,49.18c-.27,1.72-1.16,2.57-2.47,2.57H1.65c-1.38,0-1.87-.87-1.56-2.84L7.2,3.13C7.55.87,8.41,0,9.94,0ZM16.54,24.55h7.05c4.39-.17,7.33-3.21,7.62-8.72A5.33,5.33,0,0,0,26.45,10a6,6,0,0,0-.95,0H18.87L16.59,24.55ZM68.2,48.27c.8-.71,1.61-1.1,1.48-.21l-.27,2.12c-.15,1.11.28,1.7,1.29,1.7h7.71c1.29,0,1.93-.51,2.24-2.57L85.38,19.6c.25-1.49-.11-2.22-1.28-2.22H75.65c-.76,0-1.13.42-1.29,1.59l-.28,1.88c-.16.95-.59,1.12-1,.15-1.44-3.39-5.15-4.91-10.22-4.81C51,16.42,43,25.43,42.18,37c-.67,8.93,5.73,15.92,14.15,15.92a15.24,15.24,0,0,0,11.92-4.61ZM61.77,43.7a7.71,7.71,0,0,1-8-7.39,7.23,7.23,0,0,1,.1-1.61,11,11,0,0,1,10.61-9,7.73,7.73,0,0,1,7.91,9A11,11,0,0,1,61.77,43.7Zm38.71-26.38H92.77c-1.61,0-2.27,1.19-1.75,2.68l9.67,28.29L91.16,61.76c-.8,1.12-.19,2.15.94,2.15h8.76a2.66,2.66,0,0,0,2.57-1.29L133.18,20c.91-1.29.47-2.69-1-2.69h-8.28c-1.43,0-2,.57-2.81,1.75L108.66,37l-5.52-18A2.39,2.39,0,0,0,100.48,17.32Z"/><path class="b" d="M164.11,0c7.83,0,15.06,4.25,14.07,14.84C177,27.43,170.25,34.43,159.6,34.43h-9.28c-1.29,0-2,1.08-2.33,3.32l-1.8,11.43c-.27,1.72-1.14,2.57-2.46,2.57h-8.65c-1.38,0-1.85-.87-1.56-2.84L140.67,3.1C141,.85,141.9,0,143.41,0ZM150,24.55h7c4.41-.17,7.33-3.21,7.63-8.72A5.33,5.33,0,0,0,159.93,10a6.27,6.27,0,0,0-1,0h-6.63l-2.27,14.5ZM201.7,48.27c.78-.71,1.59-1.1,1.48-.21l-.28,2.12c-.16,1.11.29,1.7,1.28,1.7h7.72c1.28,0,1.93-.51,2.25-2.57l4.73-29.71c.23-1.49-.13-2.22-1.28-2.22h-8.48c-.76,0-1.13.42-1.29,1.59l-.32,1.83c-.15.95-.59,1.12-1,.15-1.43-3.39-5.15-4.91-10.21-4.81-11.83.28-19.83,9.29-20.62,20.86-.65,8.93,5.74,15.92,14.15,15.92a15.29,15.29,0,0,0,11.92-4.61Zm-6.43-4.57a7.72,7.72,0,0,1-8-7.39,7.88,7.88,0,0,1,.11-1.61,11,11,0,0,1,10.61-9,7.71,7.71,0,0,1,8,7.39,7.88,7.88,0,0,1-.1,1.61A11,11,0,0,1,195.27,43.7ZM230.7,52h-8.86a1.07,1.07,0,0,1-1.12-1,1,1,0,0,1,0-.3l7.79-49.35A1.53,1.53,0,0,1,230,0h8.86A1.05,1.05,0,0,1,240,1a1,1,0,0,1,0,.3l-7.79,49.35A1.54,1.54,0,0,1,230.7,52Z"/></svg>