<?xml version="1.0" encoding="utf-8"?><svg xmlns="http://www.w3.org/2000/svg" viewBox="0 0 264 64" width="264" height="64"><defs><style>.a{fill:#009de2;}.a,.b,.c{fill-rule:evenodd;}.b{fill:#113984;}.c{fill:#172c70;}</style></defs><path class="a" d="M23.05,15.06H41.1c9.69,0,13.34,4.91,12.78,12.13C53,39.09,45.75,45.67,36.21,45.67H31.39c-1.31,0-2.19.87-2.54,3.22L26.78,62.53c-.14.89-.6,1.41-1.3,1.47H14.16c-1.07,0-1.45-.81-1.17-2.58l6.92-43.77C20.18,15.9,21.14,15.06,23.05,15.06Z"/><path class="b" d="M101.26,14.25c6.09,0,11.71,3.31,10.94,11.54C111.29,35.56,106,41,97.75,41H90.53c-1,0-1.54.84-1.82,2.58l-1.39,8.89c-.21,1.34-.9,2-1.92,2H78.68c-1.07,0-1.45-.68-1.21-2.21L83,16.66c.27-1.75.94-2.41,2.13-2.41Zm-11,19.07h5.48c3.42-.13,5.7-2.5,5.93-6.78A4.14,4.14,0,0,0,97.23,22l-5.16,0L90.3,33.32Zm40.17,18.44c.62-.55,1.25-.85,1.15-.16l-.21,1.65c-.12.86.22,1.32,1,1.32h6c1,0,1.5-.4,1.74-2l3.68-23.1c.19-1.16-.09-1.73-1-1.73h-6.57c-.59,0-.88.33-1,1.24L135,30.44c-.12.74-.46.87-.78.12-1.12-2.64-4-3.82-7.94-3.74C117.07,27,110.86,34,110.2,43c-.52,6.94,4.45,12.38,11,12.38a11.86,11.86,0,0,0,9.27-3.59Zm-5-3.55a6,6,0,0,1-6.16-7,8.59,8.59,0,0,1,8.25-7,6,6,0,0,1,6.15,7,8.57,8.57,0,0,1-8.24,7ZM155.53,27.7h-6c-1.25,0-1.76.92-1.36,2.08l7.52,22-7.41,10.47c-.62.87-.15,1.67.73,1.67h6.81a2.07,2.07,0,0,0,2-1l23.13-33.18c.71-1,.37-2.09-.79-2.09h-6.44c-1.11,0-1.55.44-2.18,1.36l-9.65,14-4.29-14A1.86,1.86,0,0,0,155.53,27.7Z"/><path class="a" d="M205,14.25c6.09,0,11.71,3.31,10.94,11.54C215,35.56,209.78,41,201.5,41h-7.22c-1,0-1.54.84-1.81,2.58l-1.4,8.89c-.21,1.34-.89,2-1.91,2h-6.73c-1.07,0-1.44-.68-1.21-2.21l5.56-35.62c.28-1.75.95-2.41,2.13-2.41ZM194.06,33.32h5.47c3.43-.13,5.7-2.5,5.93-6.78A4.14,4.14,0,0,0,201,22l-5.16,0-1.76,11.27Zm40.17,18.44c.61-.55,1.24-.85,1.15-.16l-.22,1.65c-.12.86.23,1.32,1,1.32h6c1,0,1.5-.4,1.75-2l3.68-23.1c.18-1.16-.1-1.73-1-1.73H240c-.59,0-.88.33-1,1.24l-.25,1.42c-.12.74-.46.87-.78.12-1.11-2.64-4-3.82-7.94-3.74C220.83,27,214.61,34,214,43c-.51,6.94,4.46,12.38,11,12.38a11.89,11.89,0,0,0,9.27-3.59Zm-5-3.55a6,6,0,0,1-6.16-7,8.59,8.59,0,0,1,8.25-7,6,6,0,0,1,6.16,7,8.58,8.58,0,0,1-8.25,7Zm27.55,6.41h-6.89a.82.82,0,0,1-.85-1l6.06-38.37a1.2,1.2,0,0,1,1.15-1h6.89a.82.82,0,0,1,.85,1l-6.06,38.37A1.2,1.2,0,0,1,256.78,54.62Z"/><path class="b" d="M11.76,0H29.83C34.92,0,41,.17,45,3.73A12.22,12.22,0,0,1,48.78,14c-1.1,13.79-9.36,21.52-20.43,21.52H19.44c-1.52,0-2.52,1-3,3.73L14,55c-.16,1-.6,1.63-1.41,1.71H1.45c-1.23,0-1.67-1-1.35-3L8.12,3C8.44,1,9.55,0,11.76,0Z"/><path class="c" d="M16.75,37.63l3.16-20c.27-1.75,1.23-2.59,3.14-2.59H41.1a17.67,17.67,0,0,1,7.3,1.33c-1.82,12.28-9.76,19.1-20.16,19.1H19.33C18.15,35.49,17.28,36.09,16.75,37.63Z"/></svg>