<?xml version="1.0" encoding="utf-8"?><svg xmlns="http://www.w3.org/2000/svg" width="600" height="600" viewBox="0 0 250 250"><defs><style>.a{fill:#fff;}</style></defs><path d="M75.41,146.87V124h4.85v22.84Z"/><path d="M95.68,146.87,90.18,129H90q.3,5.48.3,7.3v10.62H86V124H92.6L98,141.5h.09L103.84,124h6.59v22.84h-4.52V136.06q0-.76,0-1.77t.21-5.31H106l-5.89,17.89Z"/><path d="M130.16,146.87l-1.65-5.44h-8.33l-1.66,5.44H113.3l8.07-22.94h5.92l8.09,22.94Zm-2.81-9.5q-2.3-7.38-2.58-8.36t-.42-1.53q-.51,2-2.95,9.89Z"/><path d="M146.93,134H156v11.85a26.23,26.23,0,0,1-4.15,1,27.28,27.28,0,0,1-4,.28q-5.18,0-7.9-3t-2.73-8.73c0-3.69,1.06-6.56,3.17-8.63s5-3.09,8.77-3.09a17,17,0,0,1,6.78,1.41L154.35,129a11.54,11.54,0,0,0-5.2-1.25,6.4,6.4,0,0,0-5,2.11,8.19,8.19,0,0,0-1.89,5.67,9.07,9.07,0,0,0,1.52,5.68,5.27,5.27,0,0,0,4.43,2,15.55,15.55,0,0,0,3.08-.31v-4.76h-4.33Z"/><path d="M174.59,146.87H161.43V124h13.16v4h-8.32v5H174v4h-7.74v5.89h8.32Z"/><path d="M85.32,160.07A5.6,5.6,0,0,0,80.86,162a7.58,7.58,0,0,0-1.63,5.15,7.72,7.72,0,0,0,1.57,5.19,5.59,5.59,0,0,0,4.5,1.84,15.38,15.38,0,0,0,4.09-.65v1.75a12.77,12.77,0,0,1-4.4.67,7.44,7.44,0,0,1-5.84-2.3,9.47,9.47,0,0,1-2.06-6.53,10.32,10.32,0,0,1,1-4.64,7.14,7.14,0,0,1,2.86-3.07,8.67,8.67,0,0,1,4.4-1.08,10.54,10.54,0,0,1,4.71,1L89.21,161A9.08,9.08,0,0,0,85.32,160.07Z"/><path d="M108,167.08a9.47,9.47,0,0,1-2.08,6.47,7.33,7.33,0,0,1-5.79,2.36,7.42,7.42,0,0,1-5.84-2.32,9.51,9.51,0,0,1-2.06-6.53,9.38,9.38,0,0,1,2.07-6.49,7.46,7.46,0,0,1,5.86-2.3,7.29,7.29,0,0,1,5.76,2.34A9.45,9.45,0,0,1,108,167.08Zm-13.66,0a8.13,8.13,0,0,0,1.49,5.28,6,6,0,0,0,8.6,0,10.25,10.25,0,0,0,0-10.53,5.19,5.19,0,0,0-4.28-1.79,5.27,5.27,0,0,0-4.33,1.8A8,8,0,0,0,94.34,167.08Z"/><path d="M119.4,175.67l-5.81-15.19h-.1c.11,1.21.17,2.64.17,4.29v10.9h-1.84V158.54h3l5.42,14.13h.1l5.47-14.13h3v17.13h-2v-11c0-1.26.06-2.64.17-4.12h-.1L121,175.67Z"/><path d="M133.48,175.67V158.54h2v17.13Z"/><path d="M153.56,175.67h-2.27l-9.37-14.38h-.09c.12,1.69.19,3.24.19,4.64v9.74h-1.84V158.54h2.25l9.34,14.32h.09c0-.21-.05-.89-.11-2s-.07-2-.05-2.46v-9.83h1.86Z"/><path d="M165.8,166.7h5.83V175a17.68,17.68,0,0,1-2.77.65,20.66,20.66,0,0,1-3.25.23,7.9,7.9,0,0,1-6.06-2.32,9.08,9.08,0,0,1-2.17-6.48,9.87,9.87,0,0,1,1.07-4.69,7.32,7.32,0,0,1,3.09-3.07,10.08,10.08,0,0,1,4.72-1.06,12.94,12.94,0,0,1,5.11,1l-.77,1.76a11.39,11.39,0,0,0-4.47-1,6.4,6.4,0,0,0-4.88,1.87,7.19,7.19,0,0,0-1.76,5.17,7.39,7.39,0,0,0,1.69,5.26,6.55,6.55,0,0,0,5,1.79,15.05,15.05,0,0,0,3.48-.41v-5.27H165.8Z"/><path d="M102.21,199.91a4.21,4.21,0,0,1-1.64,3.53,7.16,7.16,0,0,1-4.46,1.27,11.15,11.15,0,0,1-4.68-.79V202a11.8,11.8,0,0,0,2.29.7,12.25,12.25,0,0,0,2.46.26,4.91,4.91,0,0,0,3-.76,2.45,2.45,0,0,0,1-2.1,2.7,2.7,0,0,0-.36-1.46,3.21,3.21,0,0,0-1.19-1,17.26,17.26,0,0,0-2.55-1.09,8.23,8.23,0,0,1-3.42-2,4.52,4.52,0,0,1-1-3.06,3.81,3.81,0,0,1,1.49-3.16,6.17,6.17,0,0,1,3.93-1.17,11.67,11.67,0,0,1,4.7.94l-.62,1.73a10.67,10.67,0,0,0-4.12-.89,4,4,0,0,0-2.48.68,2.27,2.27,0,0,0-.89,1.89A2.89,2.89,0,0,0,94,192.9a3,3,0,0,0,1.11,1A13.22,13.22,0,0,0,97.48,195a9.43,9.43,0,0,1,3.71,2.06A4.06,4.06,0,0,1,102.21,199.91Z"/><path d="M120.58,195.88a9.42,9.42,0,0,1-2.08,6.47,7.3,7.3,0,0,1-5.78,2.36,7.42,7.42,0,0,1-5.84-2.32,11.32,11.32,0,0,1,0-13,7.48,7.48,0,0,1,5.86-2.3,7.33,7.33,0,0,1,5.77,2.34A9.45,9.45,0,0,1,120.58,195.88Zm-13.65,0a8.13,8.13,0,0,0,1.48,5.28,6.06,6.06,0,0,0,8.61,0,10.31,10.31,0,0,0,0-10.53,5.21,5.21,0,0,0-4.29-1.79,5.29,5.29,0,0,0-4.33,1.8A8,8,0,0,0,106.93,195.88Z"/><path d="M139.27,195.88a9.42,9.42,0,0,1-2.08,6.47,7.3,7.3,0,0,1-5.78,2.36,7.42,7.42,0,0,1-5.84-2.32,11.32,11.32,0,0,1,0-13,7.48,7.48,0,0,1,5.86-2.3,7.31,7.31,0,0,1,5.77,2.34A9.45,9.45,0,0,1,139.27,195.88Zm-13.65,0a8.18,8.18,0,0,0,1.48,5.28,6.06,6.06,0,0,0,8.61,0,10.31,10.31,0,0,0,0-10.53,5.21,5.21,0,0,0-4.29-1.79,5.3,5.3,0,0,0-4.33,1.8A8.09,8.09,0,0,0,125.62,195.88Z"/><path d="M156.48,204.47H154.2l-9.36-14.38h-.09c.12,1.69.18,3.24.18,4.64v9.74h-1.84V187.34h2.25l9.34,14.32h.1c0-.21-.05-.89-.11-2s-.07-2-.06-2.46v-9.83h1.87Z"/><rect x="85" y="58" width="80" height="45" rx="6"/><path d="M111,56h28V53a3,3,0,0,0-3-3H114a3,3,0,0,0-3,3Z"/><path d="M108,56H96V54a2,2,0,0,1,2-2h8a2,2,0,0,1,2,2Z"/><circle class="a" cx="125" cy="86" r="24"/><path d="M125,70a16,16,0,1,1-16,16,16,16,0,0,1,16-16m0-6a22,22,0,1,0,22,22,22,22,0,0,0-22-22Z"/><rect class="a" x="148" y="62" width="12" height="4" rx="2"/></svg>